Coordinates
version=1
nRows=8
nColumns=42
inDegrees=yes

Units are S.I. units (second, meters, Newtons, ...)
If the header above contains a line with 'inDegrees', this indicates whether rotational values are in degrees (yes) or radians (no).

endheader
time	pelvis_tilt	pelvis_list	pelvis_rotation	pelvis_tx	pelvis_ty	pelvis_tz	hip_flexion_r	hip_adduction_r	hip_rotation_r	knee_angle_r	knee_adduction_r	knee_angle_r_beta	ankle_angle_r	subtalar_angle_r	mtp_angle_r	hip_flexion_l	hip_adduction_l	hip_rotation_l	knee_angle_l	knee_adduction_l	knee_angle_l_beta	ankle_angle_l	subtalar_angle_l	mtp_angle_l	lumbar_extension	lumbar_bending	lumbar_rotation	arm_flex_r	arm_add_r	arm_rot_r	elbow_flex_r	pro_sup_r	wrist_flex_r	wrist_dev_r	arm_flex_l	arm_add_l	arm_rot_l	elbow_flex_l	pro_sup_l	wrist_flex_l	wrist_dev_l
      6.92000000	      2.48351362	      1.62155921	      6.89395943	      0.26703256	      0.85201061	      0.29154707	     29.95264793	     -8.70339134	    -16.47773963	     67.29054749	    -12.90406894	      1.17444161	     10.31111418	     10.78002450	     -7.50000193	     19.78561690	      6.12543627	    -10.01261876	     44.74593374	     -8.96303204	      0.78096387	     22.92094196	     15.42977661	     -7.50000193	    -29.74336360	     -4.49551671	     -5.31402710	      4.07306143	     -9.49347722	     -9.51266185	     41.96873217	     90.00000001	      0.00000000	      0.00000000	     27.59952635	    -16.80494582	     32.92664382	     47.37650644	     90.00000001	      0.00000000	      0.00000000
      6.93000000	      2.36422519	      1.72566397	      6.84303780	      0.26967692	      0.85176869	      0.29095641	     30.64117961	     -8.83982200	    -16.60491933	     65.79301278	    -12.58157320	      1.14830470	     10.49659890	     10.93497103	     -7.50000190	     19.69390669	      6.25062784	    -10.08557278	     44.74244678	     -8.93502025	      0.78090301	     22.95334850	     15.32722862	     -7.50000190	    -29.70963260	     -4.62245358	     -5.28760769	      3.86673931	     -9.34020815	     -9.49497989	     42.01530950	     90.00000001	      0.00000000	      0.00000000	     27.70021675	    -16.80026913	     32.73663403	     47.54870425	     90.00000001	      0.00000000	      0.00000000
      6.94000000	      2.52222951	      1.76524524	      6.85695316	      0.27282746	      0.85179763	      0.29032754	     30.90918803	     -9.04584005	    -18.67911394	     63.81107232	    -13.68560733	      1.11371331	     11.98796857	     15.53872140	     -7.50000178	     19.23893605	      6.27021233	    -10.44380681	     44.64558877	     -9.17435568	      0.77921252	     23.54954550	     16.13107942	     -7.50000178	    -29.87302690	     -4.61642080	     -5.28775190	      3.88506590	     -9.01766333	    -10.18036081	     41.42142898	     90.00000001	      0.00000000	      0.00000000	     27.70498646	    -16.56798149	     31.93745024	     47.51208982	     90.00000001	      0.00000000	      0.00000000
      6.95000000	      2.36047245	      1.89493752	      6.83841624	      0.27545760	      0.85150962	      0.28982452	     31.53133629	     -9.22384857	    -18.67162384	     62.13310162	    -13.05395305	      1.08442720	     12.03499189	     15.46022253	     -7.50000175	     19.19849382	      6.41227704	    -10.46557210	     44.66748371	     -9.09520907	      0.77959466	     23.49939152	     15.99764912	     -7.50000175	    -29.78414093	     -4.77358759	     -5.30754314	      3.67539704	     -8.84982900	    -10.13420381	     41.53495301	     90.00000001	      0.00000000	      0.00000000	     27.78791080	    -16.55720603	     31.76252309	     47.71739512	     90.00000001	      0.00000000	      0.00000000
      6.96000000	      2.20111539	      1.98862170	      6.83775240	      0.27815067	      0.85130406	      0.28934327	     32.05324401	     -9.35455572	    -18.74409097	     60.28893461	    -12.40067267	      1.05224041	     12.14173086	     15.58684359	     -7.50000172	     19.13116312	      6.53582829	    -10.46860693	     44.62871648	     -9.05915828	      0.77891804	     23.55539634	     15.89004172	     -7.50000172	    -29.71140784	     -4.87974628	     -5.31257533	      3.46125333	     -8.68324177	    -10.09176239	     41.59539419	     90.00000001	      0.00000000	      0.00000000	     27.84110563	    -16.51809119	     31.60937208	     47.89940555	     90.00000001	      0.00000000	      0.00000000
      6.97000000	      2.34583376	      1.98541911	      6.88070674	      0.28127900	      0.85142789	      0.28884765	     32.11359682	     -9.53308959	    -20.38842818	     58.01790047	    -12.73294535	      1.01260339	     13.23322657	     20.14282827	     -7.50000163	     18.66900835	      6.48319623	    -10.56131175	     44.52903252	     -9.10087442	      0.77717823	     24.16693908	     16.53526400	     -7.50000163	    -29.87682430	     -4.82276512	     -5.29614829	      3.49696393	     -8.46868843	    -10.35495958	     41.11140751	     90.00000001	      0.00000000	      0.00000000	     27.84986133	    -16.37460756	     31.21552623	     47.91877612	     90.00000001	      0.00000000	      0.00000000
      6.98000000	      2.15902104	      2.10646583	      6.89597733	      0.28399201	      0.85116903	      0.28841150	     32.57114950	     -9.72683359	    -20.46180362	     56.10044564	    -11.90091141	      0.97913749	     13.21790222	     20.13930284	     -7.50000160	     18.62647805	      6.64404720	    -10.53790221	     44.50084602	     -9.06058800	      0.77668628	     24.14863022	     16.41030516	     -7.50000160	    -29.75837002	     -4.96407765	     -5.31467359	      3.28773928	     -8.30276971	    -10.30188271	     41.21539328	     90.00000001	      0.00000000	      0.00000000	     27.88250570	    -16.33311499	     31.07959521	     48.11464937	     90.00000001	      0.00000000	      0.00000000
      6.99000000	      2.24992762	      2.10906564	      6.94419405	      0.28689883	      0.85131321	      0.28802330	     32.56911364	     -9.82981956	    -21.29259772	     53.83864780	    -11.45334827	      0.93966167	     13.47956413	     22.73906304	     -7.50000156	     18.24787483	      6.55940822	    -10.41984949	     44.47497731	     -8.85248029	      0.77623479	     24.68164851	     16.62290946	     -7.50000156	    -29.95243851	     -4.92155200	     -5.27455264	      3.22848580	     -8.18062987	    -10.31586809	     41.00646925	     90.00000001	      0.00000000	      0.00000000	     27.96331104	    -16.22019725	     30.97859557	     48.20535281	     90.00000001	      0.00000000	      0.00000000
